# xmcd
#
# Track frame offsets: 
#        150
#        10382
#        21105
#        32357
#        45072
#        55941
#        73411
#        89585
#        102065
#        113557
#        126996
#        144307
#
# Disc length: 2077 seconds
#
# Revision: 2
# Processed by: cddbd v1.5.1PL2 Copyright (c) Steve Scherf et al.
# Submitted via: ExactAudioCopy v0.90b4
#
DISCID=96081b0c
DTITLE=John Lee Hooker - Grandes Exitos
DYEAR=2002
DGENRE=Blues
TTITLE0=Dimples
TTITLE1=Maudie
TTITLE2=Shake, Holler And Run
TTITLE3=Hobo Blues
TTITLE4=Gonna Boogie
TTITLE5=Wednesday Evening Blues
TTITLE6=My First Wife Left Me
TTITLE7=I'm In The Mood
TTITLE8=Boom Boom
TTITLE9=Ride Till I Die
TTITLE10=Blues Before Sunrise
TTITLE11=I Love You Honey
EXTD=YEAR: 2002
EXTT0=
EXTT1=
EXTT2=
EXTT3=
EXTT4=
EXTT5=
EXTT6=
EXTT7=
EXTT8=
EXTT9=
EXTT10=
EXTT11=
PLAYORDER=
